<svg xmlns="http://www.w3.org/2000/svg" width="45.941" height="61.182" viewBox="0 0 45.941 61.182">
  <g id="Group_7162" data-name="Group 7162" transform="translate(-1721.907 -1668.432)">
    <path id="Path_36733" data-name="Path 36733" d="M109.213,61.182H79.869a.961.961,0,0,1-.962-.963V.963A.963.963,0,0,1,79.869,0h44.016a.963.963,0,0,1,.963.967l-.168,44.607a.961.961,0,0,1-.279.674L109.9,60.9a.965.965,0,0,1-.685.285m-28.38-1.926h27.979l13.943-14.082.164-43.25H80.833Z" transform="translate(1643 1668.432)" fill="#00b3e8"/>
    <path id="Path_36734" data-name="Path 36734" d="M109.213,61.181a.951.951,0,0,1-.366-.072.964.964,0,0,1-.6-.89V52.931c0-5.755,2.539-8.324,8.234-8.324h7.231a.964.964,0,0,1,.686,1.641L109.9,60.9a.966.966,0,0,1-.685.285m7.271-14.648c-4.6,0-6.309,1.734-6.309,6.4v4.948l11.234-11.346Z" transform="translate(1643 1668.432)" fill="#00b3e8"/>
    <rect id="Rectangle_1670" data-name="Rectangle 1670" width="43.829" height="14.799" transform="translate(1722.963 1669.395)" fill="#00b3e8"/>
    <path id="Path_36735" data-name="Path 36735" d="M93.065,12.572H91.4v-1.49h1.663Zm1.7,0V4.154h2.859a3.488,3.488,0,0,1,2.523.981,3.46,3.46,0,0,1,.99,2.531v1.4a3.433,3.433,0,0,1-.99,2.53,3.5,3.5,0,0,1-2.523.98Zm1.663-7.115v5.814h1.1a1.714,1.714,0,0,0,1.42-.625,2.357,2.357,0,0,0,.506-1.584v-1.4a2.453,2.453,0,0,0-.506-1.606,1.758,1.758,0,0,0-1.42-.6Zm12.709,3.662a3.534,3.534,0,0,1-.971,2.566,3.636,3.636,0,0,1-5.009,0,3.611,3.611,0,0,1-.972-2.566V7.607a3.469,3.469,0,0,1,.972-2.549,3.239,3.239,0,0,1,2.486-1.019,3.323,3.323,0,0,1,2.523,1.019,3.469,3.469,0,0,1,.971,2.549ZM107.475,7.59a2.655,2.655,0,0,0-.486-1.625,1.746,1.746,0,0,0-2.671,0,2.723,2.723,0,0,0-.469,1.625V9.119a2.707,2.707,0,0,0,.486,1.641,1.568,1.568,0,0,0,1.328.625,1.589,1.589,0,0,0,1.326-.625,2.707,2.707,0,0,0,.486-1.641ZM116.726,9.7l.02.037a2.738,2.738,0,0,1-.823,2.152,3.277,3.277,0,0,1-2.337.793,3.2,3.2,0,0,1-2.448-.98,3.478,3.478,0,0,1-.934-2.512V7.531a3.523,3.523,0,0,1,.915-2.51,3.09,3.09,0,0,1,2.375-.982,3.448,3.448,0,0,1,2.41.793,2.845,2.845,0,0,1,.859,2.191l-.017.037h-1.627a1.879,1.879,0,0,0-.391-1.283,1.612,1.612,0,0,0-1.234-.433,1.372,1.372,0,0,0-1.179.6,2.629,2.629,0,0,0-.447,1.567V9.193a2.529,2.529,0,0,0,.467,1.586,1.506,1.506,0,0,0,1.251.606,1.482,1.482,0,0,0,1.16-.418,1.917,1.917,0,0,0,.373-1.264Z" transform="translate(1643 1668.432)" fill="#fefefe"/>
    <path id="Path_36736" data-name="Path 36736" d="M116.539,25.994H87.195a.963.963,0,0,1,0-1.926h29.344a.963.963,0,1,1,0,1.926" transform="translate(1643 1668.432)" fill="#00b3e8"/>
    <path id="Path_36737" data-name="Path 36737" d="M116.539,32.789H87.195a.963.963,0,0,1,0-1.926h29.344a.963.963,0,1,1,0,1.926" transform="translate(1643 1668.432)" fill="#00b3e8"/>
    <path id="Path_36738" data-name="Path 36738" d="M116.539,39.584H87.195a.962.962,0,0,1,0-1.924h29.344a.962.962,0,1,1,0,1.924" transform="translate(1643 1668.432)" fill="#00b3e8"/>
    <path id="Path_36739" data-name="Path 36739" d="M101.867,46.363H87.195a.963.963,0,0,1,0-1.926h14.672a.963.963,0,1,1,0,1.926" transform="translate(1643 1668.432)" fill="#00b3e8"/>
  </g>
</svg>
